<svg width="400" height="50" viewBox="0 0 400 50" fill="none" xmlns="http://www.w3.org/2000/svg">
<mask id="mask0_602_1896" style="mask-type:luminance" maskUnits="userSpaceOnUse" x="0" y="2" width="12" height="12">
<path d="M0 2.03705H11.8486V13.9455H0V2.03705Z" fill="white"/>
</mask>
<g mask="url(#mask0_602_1896)">
<mask id="mask1_602_1896" style="mask-type:luminance" maskUnits="userSpaceOnUse" x="0" y="2" width="12" height="12">
<path d="M5.9243 2.03705C2.65141 2.03705 0 4.70186 0 7.99127C0 11.2776 2.65141 13.9455 5.9243 13.9455C9.19407 13.9455 11.8486 11.2776 11.8486 7.99127C11.8486 4.70186 9.19407 2.03705 5.9243 2.03705Z" fill="white"/>
</mask>
<g mask="url(#mask1_602_1896)">
<path d="M0 2.03705H11.8486V13.9455H0V2.03705Z" fill="#1D1D1D"/>
</g>
</g>
<mask id="mask2_602_1896" style="mask-type:luminance" maskUnits="userSpaceOnUse" x="19" y="5" width="6" height="6">
<path d="M19.6748 5.70294H24.225V10.2761H19.6748V5.70294Z" fill="white"/>
</mask>
<g mask="url(#mask2_602_1896)">
<mask id="mask3_602_1896" style="mask-type:luminance" maskUnits="userSpaceOnUse" x="19" y="5" width="6" height="6">
<path d="M21.9515 5.70294C20.6929 5.70294 19.6748 6.72618 19.6748 7.9911C19.6748 9.25288 20.6929 10.2761 21.9515 10.2761C23.2069 10.2761 24.225 9.25288 24.225 7.9911C24.225 6.72618 23.2069 5.70294 21.9515 5.70294Z" fill="white"/>
</mask>
<g mask="url(#mask3_602_1896)">
<path d="M19.6748 5.70294H24.225V10.2761H19.6748V5.70294Z" fill="#1D1D1D"/>
</g>
</g>
<mask id="mask4_602_1896" style="mask-type:luminance" maskUnits="userSpaceOnUse" x="0" y="19" width="12" height="13">
<path d="M0 19.2783H11.8486V31.1868H0V19.2783Z" fill="white"/>
</mask>
<g mask="url(#mask4_602_1896)">
<mask id="mask5_602_1896" style="mask-type:luminance" maskUnits="userSpaceOnUse" x="0" y="19" width="12" height="13">
<path d="M5.9243 19.2783C2.65141 19.2783 0 21.9463 0 25.2325C0 28.522 2.65141 31.1868 5.9243 31.1868C9.19407 31.1868 11.8486 28.522 11.8486 25.2325C11.8486 21.9463 9.19407 19.2783 5.9243 19.2783Z" fill="white"/>
</mask>
<g mask="url(#mask5_602_1896)">
<path d="M0 19.2783H11.8486V31.1868H0V19.2783Z" fill="#1D1D1D"/>
</g>
</g>
<mask id="mask6_602_1896" style="mask-type:luminance" maskUnits="userSpaceOnUse" x="19" y="22" width="6" height="6">
<path d="M19.6748 22.9471H24.225V27.5203H19.6748V22.9471Z" fill="white"/>
</mask>
<g mask="url(#mask6_602_1896)">
<mask id="mask7_602_1896" style="mask-type:luminance" maskUnits="userSpaceOnUse" x="19" y="22" width="6" height="6">
<path d="M21.9515 22.9471C20.6929 22.9471 19.6748 23.9704 19.6748 25.2322C19.6748 26.4971 20.6929 27.5203 21.9515 27.5203C23.2069 27.5203 24.225 26.4971 24.225 25.2322C24.225 23.9704 23.2069 22.9471 21.9515 22.9471Z" fill="white"/>
</mask>
<g mask="url(#mask7_602_1896)">
<path d="M19.6748 22.9471H24.225V27.5203H19.6748V22.9471Z" fill="#1D1D1D"/>
</g>
</g>
<mask id="mask8_602_1896" style="mask-type:luminance" maskUnits="userSpaceOnUse" x="19" y="40" width="6" height="6">
<path d="M19.6748 40.4425H24.225V45.0157H19.6748V40.4425Z" fill="white"/>
</mask>
<g mask="url(#mask8_602_1896)">
<mask id="mask9_602_1896" style="mask-type:luminance" maskUnits="userSpaceOnUse" x="19" y="40" width="6" height="6">
<path d="M21.9515 40.4425C20.6929 40.4425 19.6748 41.4689 19.6748 42.7307C19.6748 43.9924 20.6929 45.0157 21.9515 45.0157C23.2069 45.0157 24.225 43.9924 24.225 42.7307C24.225 41.4689 23.2069 40.4425 21.9515 40.4425Z" fill="white"/>
</mask>
<g mask="url(#mask9_602_1896)">
<path d="M19.6748 40.4425H24.225V45.0157H19.6748V40.4425Z" fill="#1D1D1D"/>
</g>
</g>
<mask id="mask10_602_1896" style="mask-type:luminance" maskUnits="userSpaceOnUse" x="3" y="40" width="6" height="6">
<path d="M3.64795 40.4991H8.19814V45.0723H3.64795V40.4991Z" fill="white"/>
</mask>
<g mask="url(#mask10_602_1896)">
<mask id="mask11_602_1896" style="mask-type:luminance" maskUnits="userSpaceOnUse" x="3" y="40" width="6" height="6">
<path d="M5.9246 40.4991C4.66604 40.4991 3.64795 41.5223 3.64795 42.7841C3.64795 44.049 4.66604 45.0723 5.9246 45.0723C7.18004 45.0723 8.19814 44.049 8.19814 42.7841C8.19814 41.5223 7.18004 40.4991 5.9246 40.4991Z" fill="white"/>
</mask>
<g mask="url(#mask11_602_1896)">
<path d="M3.64795 40.4991H8.19814V45.0723H3.64795V40.4991Z" fill="#1D1D1D"/>
</g>
</g>
<mask id="mask12_602_1896" style="mask-type:luminance" maskUnits="userSpaceOnUse" x="46" y="2" width="12" height="13">
<path d="M46.1108 2.50433H57.9594V14.4128H46.1108V2.50433Z" fill="white"/>
</mask>
<g mask="url(#mask12_602_1896)">
<mask id="mask13_602_1896" style="mask-type:luminance" maskUnits="userSpaceOnUse" x="46" y="2" width="12" height="13">
<path d="M52.0351 2.50433C48.7623 2.50433 46.1108 5.16914 46.1108 8.45856C46.1108 11.7448 48.7623 14.4128 52.0351 14.4128C55.308 14.4128 57.9594 11.7448 57.9594 8.45856C57.9594 5.16914 55.308 2.50433 52.0351 2.50433Z" fill="white"/>
</mask>
<g mask="url(#mask13_602_1896)">
<path d="M46.1108 2.50433H57.9594V14.4128H46.1108V2.50433Z" fill="#1D1D1D"/>
</g>
</g>
<mask id="mask14_602_1896" style="mask-type:luminance" maskUnits="userSpaceOnUse" x="46" y="19" width="12" height="13">
<path d="M46.1108 19.7491H57.9594V31.6544H46.1108V19.7491Z" fill="white"/>
</mask>
<g mask="url(#mask14_602_1896)">
<mask id="mask15_602_1896" style="mask-type:luminance" maskUnits="userSpaceOnUse" x="46" y="19" width="12" height="13">
<path d="M52.0351 19.7491C48.7623 19.7491 46.1108 22.4139 46.1108 25.7002C46.1108 28.9896 48.7623 31.6544 52.0351 31.6544C55.308 31.6544 57.9594 28.9896 57.9594 25.7002C57.9594 22.4139 55.308 19.7491 52.0351 19.7491Z" fill="white"/>
</mask>
<g mask="url(#mask15_602_1896)">
<path d="M46.1108 19.7491H57.9594V31.6544H46.1108V19.7491Z" fill="#1D1D1D"/>
</g>
</g>
<mask id="mask16_602_1896" style="mask-type:luminance" maskUnits="userSpaceOnUse" x="65" y="23" width="6" height="5">
<path d="M65.7886 23.415H70.3388V27.9882H65.7886V23.415Z" fill="white"/>
</mask>
<g mask="url(#mask16_602_1896)">
<mask id="mask17_602_1896" style="mask-type:luminance" maskUnits="userSpaceOnUse" x="65" y="23" width="6" height="5">
<path d="M68.0621 23.415C66.8067 23.415 65.7886 24.4382 65.7886 25.7C65.7886 26.9649 66.8067 27.9882 68.0621 27.9882C69.3207 27.9882 70.3388 26.9649 70.3388 25.7C70.3388 24.4382 69.3207 23.415 68.0621 23.415Z" fill="white"/>
</mask>
<g mask="url(#mask17_602_1896)">
<path d="M65.7886 23.415H70.3388V27.9882H65.7886V23.415Z" fill="#1D1D1D"/>
</g>
</g>
<mask id="mask18_602_1896" style="mask-type:luminance" maskUnits="userSpaceOnUse" x="46" y="36" width="12" height="12">
<path d="M46.1108 36.0546H57.9594V47.963H46.1108V36.0546Z" fill="white"/>
</mask>
<g mask="url(#mask18_602_1896)">
<mask id="mask19_602_1896" style="mask-type:luminance" maskUnits="userSpaceOnUse" x="46" y="36" width="12" height="12">
<path d="M52.0351 36.0546C48.7623 36.0546 46.1108 38.7194 46.1108 42.0088C46.1108 45.2951 48.7623 47.963 52.0351 47.963C55.308 47.963 57.9594 45.2951 57.9594 42.0088C57.9594 38.7194 55.308 36.0546 52.0351 36.0546Z" fill="white"/>
</mask>
<g mask="url(#mask19_602_1896)">
<path d="M46.1108 36.0546H57.9594V47.963H46.1108V36.0546Z" fill="#1D1D1D"/>
</g>
</g>
<mask id="mask20_602_1896" style="mask-type:luminance" maskUnits="userSpaceOnUse" x="62" y="2" width="12" height="13">
<path d="M62.1382 2.50433H73.9868V14.4128H62.1382V2.50433Z" fill="white"/>
</mask>
<g mask="url(#mask20_602_1896)">
<mask id="mask21_602_1896" style="mask-type:luminance" maskUnits="userSpaceOnUse" x="62" y="2" width="12" height="13">
<path d="M68.0625 2.50433C64.7927 2.50433 62.1382 5.16914 62.1382 8.45856C62.1382 11.7448 64.7927 14.4128 68.0625 14.4128C71.3354 14.4128 73.9868 11.7448 73.9868 8.45856C73.9868 5.16914 71.3354 2.50433 68.0625 2.50433Z" fill="white"/>
</mask>
<g mask="url(#mask21_602_1896)">
<path d="M62.1382 2.50433H73.9868V14.4128H62.1382V2.50433Z" fill="#1D1D1D"/>
</g>
</g>
<mask id="mask22_602_1896" style="mask-type:luminance" maskUnits="userSpaceOnUse" x="62" y="36" width="12" height="12">
<path d="M62.1382 36.0546H73.9868V47.963H62.1382V36.0546Z" fill="white"/>
</mask>
<g mask="url(#mask22_602_1896)">
<mask id="mask23_602_1896" style="mask-type:luminance" maskUnits="userSpaceOnUse" x="62" y="36" width="12" height="12">
<path d="M68.0625 36.0546C64.7927 36.0546 62.1382 38.7194 62.1382 42.0088C62.1382 45.2951 64.7927 47.963 68.0625 47.963C71.3354 47.963 73.9868 45.2951 73.9868 42.0088C73.9868 38.7194 71.3354 36.0546 68.0625 36.0546Z" fill="white"/>
</mask>
<g mask="url(#mask23_602_1896)">
<path d="M62.1382 36.0546H73.9868V47.963H62.1382V36.0546Z" fill="#1D1D1D"/>
</g>
</g>
<mask id="mask24_602_1896" style="mask-type:luminance" maskUnits="userSpaceOnUse" x="92" y="19" width="13" height="13">
<path d="M92.3687 19.2783H104.217V31.1868H92.3687V19.2783Z" fill="white"/>
</mask>
<g mask="url(#mask24_602_1896)">
<mask id="mask25_602_1896" style="mask-type:luminance" maskUnits="userSpaceOnUse" x="92" y="19" width="13" height="13">
<path d="M98.293 19.2783C95.0201 19.2783 92.3687 21.9463 92.3687 25.2325C92.3687 28.522 95.0201 31.1868 98.293 31.1868C101.566 31.1868 104.217 28.522 104.217 25.2325C104.217 21.9463 101.566 19.2783 98.293 19.2783Z" fill="white"/>
</mask>
<g mask="url(#mask25_602_1896)">
<path d="M92.3687 19.2783H104.217V31.1868H92.3687V19.2783Z" fill="#1D1D1D"/>
</g>
</g>
<mask id="mask26_602_1896" style="mask-type:luminance" maskUnits="userSpaceOnUse" x="114" y="22" width="5" height="6">
<path d="M114.32 22.9471H118.87V27.5203H114.32V22.9471Z" fill="white"/>
</mask>
<g mask="url(#mask26_602_1896)">
<mask id="mask27_602_1896" style="mask-type:luminance" maskUnits="userSpaceOnUse" x="114" y="22" width="5" height="6">
<path d="M116.596 22.9471C115.338 22.9471 114.32 23.9704 114.32 25.2322C114.32 26.4971 115.338 27.5203 116.596 27.5203C117.852 27.5203 118.87 26.4971 118.87 25.2322C118.87 23.9704 117.852 22.9471 116.596 22.9471Z" fill="white"/>
</mask>
<g mask="url(#mask27_602_1896)">
<path d="M114.32 22.9471H118.87V27.5203H114.32V22.9471Z" fill="#1D1D1D"/>
</g>
</g>
<mask id="mask28_602_1896" style="mask-type:luminance" maskUnits="userSpaceOnUse" x="110" y="2" width="13" height="12">
<path d="M110.672 2.03705H122.518V13.9455H110.672V2.03705Z" fill="white"/>
</mask>
<g mask="url(#mask28_602_1896)">
<mask id="mask29_602_1896" style="mask-type:luminance" maskUnits="userSpaceOnUse" x="110" y="2" width="13" height="12">
<path d="M116.597 2.03705C113.324 2.03705 110.672 4.70186 110.672 7.99127C110.672 11.2776 113.324 13.9455 116.597 13.9455C119.866 13.9455 122.518 11.2776 122.518 7.99127C122.518 4.70186 119.866 2.03705 116.597 2.03705Z" fill="white"/>
</mask>
<g mask="url(#mask29_602_1896)">
<path d="M110.672 2.03705H122.518V13.9455H110.672V2.03705Z" fill="#1D1D1D"/>
</g>
</g>
<mask id="mask30_602_1896" style="mask-type:luminance" maskUnits="userSpaceOnUse" x="96" y="5" width="5" height="6">
<path d="M96.0161 5.92249H100.566V10.4957H96.0161V5.92249Z" fill="white"/>
</mask>
<g mask="url(#mask30_602_1896)">
<mask id="mask31_602_1896" style="mask-type:luminance" maskUnits="userSpaceOnUse" x="96" y="5" width="5" height="6">
<path d="M98.2928 5.92249C97.0373 5.92249 96.0161 6.94572 96.0161 8.21064C96.0161 9.47242 97.0373 10.4957 98.2928 10.4957C99.5482 10.4957 100.566 9.47242 100.566 8.21064C100.566 6.94572 99.5482 5.92249 98.2928 5.92249Z" fill="white"/>
</mask>
<g mask="url(#mask31_602_1896)">
<path d="M96.0161 5.92249H100.566V10.4957H96.0161V5.92249Z" fill="#1D1D1D"/>
</g>
</g>
<mask id="mask32_602_1896" style="mask-type:luminance" maskUnits="userSpaceOnUse" x="96" y="39" width="5" height="6">
<path d="M96.0161 39.7211H100.566V44.2942H96.0161V39.7211Z" fill="white"/>
</mask>
<g mask="url(#mask32_602_1896)">
<mask id="mask33_602_1896" style="mask-type:luminance" maskUnits="userSpaceOnUse" x="96" y="39" width="5" height="6">
<path d="M98.2928 39.7211C97.0373 39.7211 96.0161 40.7443 96.0161 42.0092C96.0161 43.271 97.0373 44.2942 98.2928 44.2942C99.5482 44.2942 100.566 43.271 100.566 42.0092C100.566 40.7443 99.5482 39.7211 98.2928 39.7211Z" fill="white"/>
</mask>
<g mask="url(#mask33_602_1896)">
<path d="M96.0161 39.7211H100.566V44.2942H96.0161V39.7211Z" fill="#1D1D1D"/>
</g>
</g>
<mask id="mask34_602_1896" style="mask-type:luminance" maskUnits="userSpaceOnUse" x="114" y="39" width="5" height="6">
<path d="M114.32 39.7211H118.87V44.2942H114.32V39.7211Z" fill="white"/>
</mask>
<g mask="url(#mask34_602_1896)">
<mask id="mask35_602_1896" style="mask-type:luminance" maskUnits="userSpaceOnUse" x="114" y="39" width="5" height="6">
<path d="M116.596 39.7211C115.338 39.7211 114.32 40.7443 114.32 42.0092C114.32 43.271 115.338 44.2942 116.596 44.2942C117.852 44.2942 118.87 43.271 118.87 42.0092C118.87 40.7443 117.852 39.7211 116.596 39.7211Z" fill="white"/>
</mask>
<g mask="url(#mask35_602_1896)">
<path d="M114.32 39.7211H118.87V44.2942H114.32V39.7211Z" fill="#1D1D1D"/>
</g>
</g>
<mask id="mask36_602_1896" style="mask-type:luminance" maskUnits="userSpaceOnUse" x="140" y="2" width="12" height="13">
<path d="M140.028 2.50433H151.877V14.4128H140.028V2.50433Z" fill="white"/>
</mask>
<g mask="url(#mask36_602_1896)">
<mask id="mask37_602_1896" style="mask-type:luminance" maskUnits="userSpaceOnUse" x="140" y="2" width="12" height="13">
<path d="M145.953 2.50433C142.68 2.50433 140.028 5.16914 140.028 8.45856C140.028 11.7448 142.68 14.4128 145.953 14.4128C149.222 14.4128 151.877 11.7448 151.877 8.45856C151.877 5.16914 149.222 2.50433 145.953 2.50433Z" fill="white"/>
</mask>
<g mask="url(#mask37_602_1896)">
<path d="M140.028 2.50433H151.877V14.4128H140.028V2.50433Z" fill="#1D1D1D"/>
</g>
</g>
<mask id="mask38_602_1896" style="mask-type:luminance" maskUnits="userSpaceOnUse" x="161" y="6" width="6" height="5">
<path d="M161.98 6.17084H166.53V10.744H161.98V6.17084Z" fill="white"/>
</mask>
<g mask="url(#mask38_602_1896)">
<mask id="mask39_602_1896" style="mask-type:luminance" maskUnits="userSpaceOnUse" x="161" y="6" width="6" height="5">
<path d="M164.254 6.17084C162.998 6.17084 161.98 7.19407 161.98 8.45899C161.98 9.72077 162.998 10.744 164.254 10.744C165.512 10.744 166.53 9.72077 166.53 8.45899C166.53 7.19407 165.512 6.17084 164.254 6.17084Z" fill="white"/>
</mask>
<g mask="url(#mask39_602_1896)">
<path d="M161.98 6.17084H166.53V10.744H161.98V6.17084Z" fill="#1D1D1D"/>
</g>
</g>
<mask id="mask40_602_1896" style="mask-type:luminance" maskUnits="userSpaceOnUse" x="140" y="19" width="12" height="13">
<path d="M140.028 19.7491H151.877V31.6544H140.028V19.7491Z" fill="white"/>
</mask>
<g mask="url(#mask40_602_1896)">
<mask id="mask41_602_1896" style="mask-type:luminance" maskUnits="userSpaceOnUse" x="140" y="19" width="12" height="13">
<path d="M145.953 19.7491C142.68 19.7491 140.028 22.4139 140.028 25.7002C140.028 28.9896 142.68 31.6544 145.953 31.6544C149.222 31.6544 151.877 28.9896 151.877 25.7002C151.877 22.4139 149.222 19.7491 145.953 19.7491Z" fill="white"/>
</mask>
<g mask="url(#mask41_602_1896)">
<path d="M140.028 19.7491H151.877V31.6544H140.028V19.7491Z" fill="#1D1D1D"/>
</g>
</g>
<mask id="mask42_602_1896" style="mask-type:luminance" maskUnits="userSpaceOnUse" x="161" y="40" width="6" height="6">
<path d="M161.98 40.9828H166.53V45.556H161.98V40.9828Z" fill="white"/>
</mask>
<g mask="url(#mask42_602_1896)">
<mask id="mask43_602_1896" style="mask-type:luminance" maskUnits="userSpaceOnUse" x="161" y="40" width="6" height="6">
<path d="M164.254 40.9828C162.998 40.9828 161.98 42.006 161.98 43.2678C161.98 44.5327 162.998 45.556 164.254 45.556C165.512 45.556 166.53 44.5327 166.53 43.2678C166.53 42.006 165.512 40.9828 164.254 40.9828Z" fill="white"/>
</mask>
<g mask="url(#mask43_602_1896)">
<path d="M161.98 40.9828H166.53V45.556H161.98V40.9828Z" fill="#1D1D1D"/>
</g>
</g>
<mask id="mask44_602_1896" style="mask-type:luminance" maskUnits="userSpaceOnUse" x="140" y="36" width="12" height="12">
<path d="M140.028 36.0546H151.877V47.963H140.028V36.0546Z" fill="white"/>
</mask>
<g mask="url(#mask44_602_1896)">
<mask id="mask45_602_1896" style="mask-type:luminance" maskUnits="userSpaceOnUse" x="140" y="36" width="12" height="12">
<path d="M145.953 36.0546C142.68 36.0546 140.028 38.7194 140.028 42.0088C140.028 45.2951 142.68 47.963 145.953 47.963C149.222 47.963 151.877 45.2951 151.877 42.0088C151.877 38.7194 149.222 36.0546 145.953 36.0546Z" fill="white"/>
</mask>
<g mask="url(#mask45_602_1896)">
<path d="M140.028 36.0546H151.877V47.963H140.028V36.0546Z" fill="#1D1D1D"/>
</g>
</g>
<mask id="mask46_602_1896" style="mask-type:luminance" maskUnits="userSpaceOnUse" x="158" y="19" width="13" height="13">
<path d="M158.329 19.9092H170.178V31.8177H158.329V19.9092Z" fill="white"/>
</mask>
<g mask="url(#mask46_602_1896)">
<mask id="mask47_602_1896" style="mask-type:luminance" maskUnits="userSpaceOnUse" x="158" y="19" width="13" height="13">
<path d="M164.253 19.9092C160.984 19.9092 158.329 22.574 158.329 25.8635C158.329 29.1529 160.984 31.8177 164.253 31.8177C167.526 31.8177 170.178 29.1529 170.178 25.8635C170.178 22.574 167.526 19.9092 164.253 19.9092Z" fill="white"/>
</mask>
<g mask="url(#mask47_602_1896)">
<path d="M158.329 19.9092H170.178V31.8177H158.329V19.9092Z" fill="#1D1D1D"/>
</g>
</g>
<path d="M207.465 2.0155V2.47221C206.914 2.54627 206.49 2.70673 206.194 2.9536C205.782 3.29921 205.132 4.24142 204.243 5.78022L200.614 11.8408V15.8894C200.614 16.7534 200.66 17.2924 200.75 17.5064C200.841 17.7121 201.018 17.8972 201.281 18.0618C201.553 18.2182 201.911 18.2963 202.355 18.2963H203.293V18.7531H193.9V18.2963H194.776C195.27 18.2963 195.661 18.2099 195.949 18.0371C196.163 17.9219 196.331 17.7244 196.455 17.4447C196.545 17.2472 196.591 16.7287 196.591 15.8894V12.532L192.653 5.36054C191.871 3.94518 191.32 3.11406 190.999 2.86719C190.678 2.6121 190.25 2.48043 189.715 2.47221V2.0155H197.738V2.47221H197.381C196.895 2.47221 196.554 2.54215 196.356 2.68204C196.167 2.82193 196.072 2.97005 196.072 3.1264C196.072 3.42264 196.401 4.16736 197.06 5.36054L200.084 10.9027L203.095 5.85428C203.844 4.61994 204.219 3.80117 204.219 3.39796C204.219 3.17578 204.112 2.99063 203.898 2.84251C203.618 2.63678 203.104 2.51335 202.355 2.47221V2.0155H207.465Z" fill="#1D1D1D"/>
<path d="M212.168 17.0497C210.761 18.2922 209.498 18.9135 208.378 18.9135C207.72 18.9135 207.173 18.6996 206.737 18.2717C206.301 17.8355 206.083 17.2924 206.083 16.6423C206.083 15.7619 206.461 14.9719 207.218 14.2724C207.975 13.5647 209.625 12.6266 212.168 11.4581V10.2979C212.168 9.42561 212.118 8.87839 212.02 8.65621C211.929 8.4258 211.752 8.22831 211.489 8.06373C211.226 7.89093 210.929 7.80452 210.6 7.80452C210.065 7.80452 209.625 7.92384 209.28 8.16248C209.066 8.3106 208.959 8.4834 208.959 8.6809C208.959 8.8537 209.074 9.06766 209.304 9.32275C209.617 9.67659 209.773 10.0181 209.773 10.3472C209.773 10.7505 209.621 11.0961 209.317 11.3841C209.02 11.6639 208.629 11.8038 208.144 11.8038C207.625 11.8038 207.189 11.6474 206.836 11.3347C206.49 11.022 206.317 10.6558 206.317 10.2362C206.317 9.64368 206.552 9.08 207.021 8.54512C207.49 8.00202 208.144 7.58646 208.983 7.29845C209.823 7.01043 210.695 6.86643 211.6 6.86643C212.694 6.86643 213.559 7.10095 214.192 7.57C214.834 8.03082 215.25 8.53278 215.439 9.07588C215.554 9.4215 215.612 10.2156 215.612 11.4581V15.9388C215.612 16.4654 215.632 16.7987 215.673 16.9386C215.714 17.0702 215.776 17.169 215.858 17.2348C215.941 17.3007 216.035 17.3336 216.142 17.3336C216.356 17.3336 216.574 17.1813 216.797 16.8769L217.167 17.1731C216.755 17.782 216.328 18.2264 215.883 18.5062C215.447 18.7777 214.949 18.9135 214.39 18.9135C213.731 18.9135 213.217 18.7613 212.847 18.4568C212.476 18.1441 212.25 17.6751 212.168 17.0497ZM212.168 16.1486V12.2851C211.172 12.8694 210.432 13.4948 209.946 14.1613C209.625 14.6057 209.465 15.0542 209.465 15.5068C209.465 15.8853 209.6 16.2186 209.872 16.5066C210.078 16.7287 210.366 16.8398 210.736 16.8398C211.147 16.8398 211.625 16.6094 212.168 16.1486Z" fill="#1D1D1D"/>
<path d="M223.734 19.2221L220.006 10.6682C219.446 9.37624 219.031 8.58215 218.759 8.28591C218.496 7.98967 218.175 7.78395 217.796 7.66875V7.21204H223.931V7.66875C223.528 7.6852 223.244 7.76338 223.079 7.90327C222.915 8.04316 222.832 8.21185 222.832 8.40935C222.832 8.72204 223.038 9.33921 223.45 10.2608L225.425 14.7785L226.77 11.2853C227.255 10.0428 227.498 9.17875 227.498 8.69324C227.498 8.38877 227.395 8.14602 227.19 7.96499C226.992 7.78395 226.638 7.6852 226.128 7.66875V7.21204H229.992V7.66875C229.613 7.70989 229.304 7.85801 229.066 8.11311C228.827 8.35997 228.428 9.21166 227.869 10.6682L224.573 19.2221C223.742 21.3616 223.125 22.6782 222.721 23.172C222.154 23.8632 221.442 24.2088 220.586 24.2088C219.903 24.2088 219.348 24.0113 218.92 23.6163C218.5 23.2296 218.29 22.7605 218.29 22.2092C218.29 21.7319 218.434 21.3369 218.722 21.0242C219.018 20.7115 219.38 20.5552 219.808 20.5552C220.22 20.5552 220.549 20.6868 220.796 20.9502C221.051 21.2135 221.183 21.6208 221.191 22.1722C221.199 22.4848 221.236 22.6865 221.302 22.777C221.368 22.8675 221.462 22.9128 221.586 22.9128C221.783 22.9128 221.993 22.7934 222.215 22.5548C222.544 22.2092 222.931 21.4192 223.376 20.1849L223.734 19.2221Z" fill="#1D1D1D"/>
<path d="M237.447 17.0497C236.04 18.2922 234.777 18.9135 233.658 18.9135C232.999 18.9135 232.452 18.6996 232.016 18.2717C231.58 17.8355 231.362 17.2924 231.362 16.6423C231.362 15.7619 231.74 14.9719 232.497 14.2724C233.254 13.5647 234.904 12.6266 237.447 11.4581V10.2979C237.447 9.42561 237.398 8.87839 237.299 8.65621C237.208 8.4258 237.031 8.22831 236.768 8.06373C236.505 7.89093 236.209 7.80452 235.879 7.80452C235.344 7.80452 234.904 7.92384 234.559 8.16248C234.345 8.3106 234.238 8.4834 234.238 8.6809C234.238 8.8537 234.353 9.06766 234.583 9.32275C234.896 9.67659 235.052 10.0181 235.052 10.3472C235.052 10.7505 234.9 11.0961 234.596 11.3841C234.299 11.6639 233.909 11.8038 233.423 11.8038C232.905 11.8038 232.468 11.6474 232.115 11.3347C231.769 11.022 231.596 10.6558 231.596 10.2362C231.596 9.64368 231.831 9.08 232.3 8.54512C232.769 8.00202 233.423 7.58646 234.262 7.29845C235.102 7.01043 235.974 6.86643 236.879 6.86643C237.974 6.86643 238.838 7.10095 239.471 7.57C240.113 8.03082 240.529 8.53278 240.718 9.07588C240.833 9.4215 240.891 10.2156 240.891 11.4581V15.9388C240.891 16.4654 240.911 16.7987 240.952 16.9386C240.994 17.0702 241.055 17.169 241.138 17.2348C241.22 17.3007 241.315 17.3336 241.422 17.3336C241.635 17.3336 241.854 17.1813 242.076 16.8769L242.446 17.1731C242.035 17.782 241.607 18.2264 241.162 18.5062C240.726 18.7777 240.228 18.9135 239.669 18.9135C239.01 18.9135 238.496 18.7613 238.126 18.4568C237.756 18.1441 237.529 17.6751 237.447 17.0497ZM237.447 16.1486V12.2851C236.451 12.8694 235.711 13.4948 235.225 14.1613C234.904 14.6057 234.744 15.0542 234.744 15.5068C234.744 15.8853 234.88 16.2186 235.151 16.5066C235.357 16.7287 235.645 16.8398 236.015 16.8398C236.427 16.8398 236.904 16.6094 237.447 16.1486Z" fill="#1D1D1D"/>
<path d="M251.012 6.89112L251.197 10.8286H250.778C250.276 9.66014 249.753 8.86193 249.21 8.43403C248.675 8.00613 248.14 7.79218 247.606 7.79218C247.268 7.79218 246.98 7.90738 246.741 8.13779C246.503 8.35997 246.384 8.61918 246.384 8.91542C246.384 9.1376 246.466 9.35155 246.63 9.55727C246.894 9.89466 247.63 10.4748 248.84 11.2977C250.05 12.1123 250.844 12.8077 251.222 13.3837C251.609 13.9515 251.802 14.5892 251.802 15.2969C251.802 15.9388 251.642 16.5683 251.321 17.1854C251 17.8026 250.547 18.2758 249.963 18.6049C249.379 18.9341 248.733 19.0987 248.025 19.0987C247.474 19.0987 246.737 18.9259 245.816 18.5802C245.569 18.4897 245.4 18.4445 245.31 18.4445C245.038 18.4445 244.812 18.6502 244.631 19.0616H244.223L244.026 14.9143H244.446C244.816 16.0005 245.322 16.8151 245.964 17.3583C246.614 17.9014 247.227 18.1729 247.803 18.1729C248.198 18.1729 248.519 18.0536 248.766 17.815C249.021 17.5681 249.148 17.2719 249.148 16.9262C249.148 16.5313 249.025 16.1898 248.778 15.9017C248.531 15.6137 247.98 15.1776 247.124 14.5934C245.865 13.7211 245.05 13.0545 244.68 12.5937C244.137 11.919 243.865 11.1742 243.865 10.3596C243.865 9.47087 244.17 8.66855 244.779 7.95264C245.396 7.2285 246.285 6.86643 247.445 6.86643C248.07 6.86643 248.675 7.01866 249.26 7.32313C249.482 7.44657 249.663 7.50828 249.803 7.50828C249.951 7.50828 250.07 7.47948 250.161 7.42188C250.251 7.35605 250.395 7.17913 250.593 6.89112H251.012Z" fill="#1D1D1D"/>
<path d="M259.937 17.0497C258.529 18.2922 257.266 18.9135 256.147 18.9135C255.489 18.9135 254.942 18.6996 254.505 18.2717C254.069 17.8355 253.851 17.2924 253.851 16.6423C253.851 15.7619 254.23 14.9719 254.987 14.2724C255.744 13.5647 257.394 12.6266 259.937 11.4581V10.2979C259.937 9.42561 259.887 8.87839 259.788 8.65621C259.698 8.4258 259.521 8.22831 259.258 8.06373C258.994 7.89093 258.698 7.80452 258.369 7.80452C257.834 7.80452 257.394 7.92384 257.048 8.16248C256.834 8.3106 256.727 8.4834 256.727 8.6809C256.727 8.8537 256.842 9.06766 257.073 9.32275C257.386 9.67659 257.542 10.0181 257.542 10.3472C257.542 10.7505 257.39 11.0961 257.085 11.3841C256.789 11.6639 256.398 11.8038 255.913 11.8038C255.394 11.8038 254.958 11.6474 254.604 11.3347C254.259 11.022 254.086 10.6558 254.086 10.2362C254.086 9.64368 254.32 9.08 254.789 8.54512C255.258 8.00202 255.913 7.58646 256.752 7.29845C257.591 7.01043 258.464 6.86643 259.369 6.86643C260.463 6.86643 261.327 7.10095 261.961 7.57C262.603 8.03082 263.018 8.53278 263.207 9.07588C263.323 9.4215 263.38 10.2156 263.38 11.4581V15.9388C263.38 16.4654 263.401 16.7987 263.442 16.9386C263.483 17.0702 263.545 17.169 263.627 17.2348C263.709 17.3007 263.804 17.3336 263.911 17.3336C264.125 17.3336 264.343 17.1813 264.565 16.8769L264.936 17.1731C264.524 17.782 264.096 18.2264 263.652 18.5062C263.216 18.7777 262.718 18.9135 262.158 18.9135C261.5 18.9135 260.986 18.7613 260.615 18.4568C260.245 18.1441 260.019 17.6751 259.937 17.0497ZM259.937 16.1486V12.2851C258.941 12.8694 258.2 13.4948 257.715 14.1613C257.394 14.6057 257.233 15.0542 257.233 15.5068C257.233 15.8853 257.369 16.2186 257.641 16.5066C257.846 16.7287 258.134 16.8398 258.505 16.8398C258.916 16.8398 259.393 16.6094 259.937 16.1486Z" fill="#1D1D1D"/>
<path d="M270.922 7.21204V8.70558C271.515 8.06373 272.082 7.5988 272.625 7.31079C273.169 7.01455 273.753 6.86643 274.378 6.86643C275.127 6.86643 275.748 7.07627 276.242 7.49594C276.736 7.90738 277.065 8.42169 277.23 9.03885C277.361 9.5079 277.427 10.409 277.427 11.742V16.235C277.427 17.1237 277.505 17.6792 277.662 17.9014C277.826 18.1153 278.163 18.2511 278.674 18.3087V18.7531H272.835V18.3087C273.271 18.2511 273.584 18.0701 273.773 17.7656C273.905 17.5599 273.971 17.0497 273.971 16.235V11.1002C273.971 10.1539 273.934 9.55727 273.86 9.31041C273.786 9.06354 273.658 8.87428 273.477 8.74261C273.304 8.60272 273.111 8.53278 272.897 8.53278C272.189 8.53278 271.531 9.03885 270.922 10.051V16.235C270.922 17.099 271 17.6463 271.157 17.8767C271.321 18.1071 271.622 18.2511 272.058 18.3087V18.7531H266.219V18.3087C266.705 18.2593 267.05 18.103 267.256 17.8396C267.396 17.6586 267.466 17.1237 267.466 16.235V9.71774C267.466 8.84548 267.384 8.30237 267.219 8.08842C267.063 7.87447 266.729 7.73458 266.219 7.66875V7.21204H270.922Z" fill="#1D1D1D"/>
<path d="M196.405 39.7762V44.9604C196.405 45.8162 196.451 46.3511 196.541 46.565C196.64 46.779 196.825 46.9682 197.097 47.1328C197.376 47.2892 197.751 47.3673 198.22 47.3673H198.775V47.824H190.024V47.3673H190.579C191.065 47.3673 191.456 47.2809 191.752 47.1081C191.966 46.9929 192.131 46.7954 192.246 46.5157C192.336 46.3182 192.381 45.7997 192.381 44.9604V33.9502C192.381 33.0943 192.336 32.5595 192.246 32.3455C192.155 32.1316 191.97 31.9464 191.69 31.7901C191.419 31.6255 191.048 31.5432 190.579 31.5432H190.024V31.0865H198.775V31.5432H198.22C197.734 31.5432 197.344 31.6296 197.047 31.8024C196.833 31.9176 196.665 32.1151 196.541 32.3949C196.451 32.5924 196.405 33.1108 196.405 33.9502V38.69H202.318V33.9502C202.318 33.0943 202.273 32.5595 202.182 32.3455C202.092 32.1316 201.906 31.9464 201.627 31.7901C201.347 31.6255 200.972 31.5432 200.503 31.5432H199.96V31.0865H208.699V31.5432H208.156C207.663 31.5432 207.272 31.6296 206.984 31.8024C206.77 31.9176 206.601 32.1151 206.478 32.3949C206.387 32.5924 206.342 33.1108 206.342 33.9502V44.9604C206.342 45.8162 206.387 46.3511 206.478 46.565C206.568 46.779 206.753 46.9682 207.033 47.1328C207.313 47.2892 207.687 47.3673 208.156 47.3673H208.699V47.824H199.96V47.3673H200.503C200.997 47.3673 201.388 47.2809 201.676 47.1081C201.89 46.9929 202.059 46.7954 202.182 46.5157C202.273 46.3182 202.318 45.7997 202.318 44.9604V39.7762H196.405Z" fill="#1D1D1D"/>
<path d="M212.797 30.6915C213.332 30.6915 213.785 30.8808 214.155 31.2593C214.525 31.6296 214.711 32.0781 214.711 32.6047C214.711 33.1314 214.521 33.5799 214.143 33.9502C213.772 34.3205 213.324 34.5056 212.797 34.5056C212.271 34.5056 211.822 34.3205 211.452 33.9502C211.082 33.5799 210.896 33.1314 210.896 32.6047C210.896 32.0781 211.082 31.6296 211.452 31.2593C211.822 30.8808 212.271 30.6915 212.797 30.6915ZM214.525 36.283V45.4294C214.525 46.2441 214.62 46.7666 214.809 46.997C214.999 47.2192 215.369 47.3468 215.92 47.3797V47.824H209.687V47.3797C210.197 47.3632 210.576 47.2151 210.822 46.9353C210.987 46.7461 211.069 46.2441 211.069 45.4294V38.69C211.069 37.8753 210.975 37.3569 210.785 37.1347C210.596 36.9043 210.23 36.7727 209.687 36.7397V36.283H214.525Z" fill="#1D1D1D"/>
<path d="M221.746 31.0865V42.0967L224.425 39.4676C224.976 38.9327 225.318 38.546 225.449 38.3073C225.589 38.0687 225.659 37.8383 225.659 37.6161C225.659 37.3939 225.569 37.2088 225.388 37.0607C225.207 36.9125 224.853 36.8056 224.326 36.7397V36.283H229.498V36.7397C229.004 36.7644 228.572 36.8837 228.202 37.0977C227.832 37.3034 227.107 37.9329 226.029 38.9862L224.77 40.2206L227.486 44.1951C228.58 45.808 229.23 46.7131 229.436 46.9106C229.716 47.1904 230.07 47.3468 230.498 47.3797V47.824H224.536V47.3797C224.799 47.3797 224.988 47.3303 225.104 47.2316C225.227 47.1328 225.289 47.0258 225.289 46.9106C225.289 46.7214 225.116 46.3717 224.77 45.8615L222.487 42.5164L221.746 43.2447V45.3184C221.746 46.1988 221.829 46.7502 221.993 46.9724C222.158 47.1863 222.495 47.3221 223.005 47.3797V47.824H217.043V47.3797C217.529 47.3303 217.875 47.174 218.08 46.9106C218.22 46.7296 218.29 46.1988 218.29 45.3184V33.5922C218.29 32.7199 218.208 32.1768 218.043 31.9629C217.887 31.7489 217.554 31.609 217.043 31.5432V31.0865H221.746Z" fill="#1D1D1D"/>
<path d="M235.916 36.283V37.8013C236.55 37.11 237.134 36.6287 237.669 36.3571C238.212 36.0773 238.805 35.9374 239.447 35.9374C240.187 35.9374 240.808 36.1102 241.31 36.4558C241.812 36.8015 242.199 37.3281 242.471 38.0358C243.129 37.2952 243.759 36.7603 244.359 36.4312C244.968 36.102 245.602 35.9374 246.26 35.9374C247.058 35.9374 247.692 36.1226 248.161 36.4929C248.638 36.8549 248.967 37.3199 249.148 37.8877C249.338 38.4472 249.432 39.3442 249.432 40.5785V45.306C249.432 46.1947 249.511 46.7461 249.667 46.96C249.831 47.174 250.169 47.3139 250.679 47.3797V47.824H244.717V47.3797C245.186 47.3385 245.532 47.1575 245.754 46.8366C245.902 46.6144 245.976 46.1042 245.976 45.306V40.344C245.976 39.3154 245.935 38.6612 245.853 38.3814C245.77 38.1016 245.639 37.8959 245.458 37.7642C245.285 37.6243 245.079 37.5544 244.841 37.5544C244.487 37.5544 244.129 37.6861 243.767 37.9494C243.405 38.2045 243.038 38.5912 242.668 39.1097V45.306C242.668 46.1371 242.738 46.6597 242.878 46.8736C243.067 47.1781 243.429 47.3468 243.964 47.3797V47.824H237.99V47.3797C238.311 47.3632 238.562 47.2851 238.743 47.1452C238.932 46.997 239.056 46.8242 239.113 46.6267C239.179 46.421 239.212 45.9808 239.212 45.306V40.344C239.212 39.2989 239.171 38.6447 239.089 38.3814C239.006 38.1181 238.866 37.9124 238.669 37.7642C238.48 37.6161 238.274 37.5421 238.052 37.5421C237.723 37.5421 237.422 37.6285 237.151 37.8013C236.764 38.0564 236.353 38.4925 235.916 39.1097V45.306C235.916 46.1207 235.995 46.6597 236.151 46.923C236.315 47.1781 236.653 47.3303 237.163 47.3797V47.824H231.214V47.3797C231.699 47.3303 232.045 47.174 232.25 46.9106C232.39 46.7296 232.46 46.1947 232.46 45.306V38.7887C232.46 37.9165 232.378 37.3734 232.213 37.1594C232.057 36.9455 231.724 36.8056 231.214 36.7397V36.283H235.916Z" fill="#1D1D1D"/>
<path d="M258.554 46.1207C257.147 47.3632 255.884 47.9845 254.765 47.9845C254.106 47.9845 253.559 47.7706 253.123 47.3427C252.687 46.9065 252.469 46.3634 252.469 45.7133C252.469 44.8328 252.847 44.0429 253.604 43.3434C254.361 42.6357 256.011 41.6976 258.554 40.5291V39.3689C258.554 38.4966 258.505 37.9494 258.406 37.7272C258.315 37.4968 258.138 37.2993 257.875 37.1347C257.612 36.9619 257.316 36.8755 256.986 36.8755C256.452 36.8755 256.011 36.9948 255.666 37.2335C255.452 37.3816 255.345 37.5544 255.345 37.7519C255.345 37.9247 255.46 38.1387 255.69 38.3937C256.003 38.7476 256.159 39.0891 256.159 39.4182C256.159 39.8215 256.007 40.1671 255.703 40.4551C255.407 40.7349 255.016 40.8748 254.53 40.8748C254.012 40.8748 253.576 40.7184 253.222 40.4057C252.876 40.093 252.703 39.7268 252.703 39.3072C252.703 38.7147 252.938 38.151 253.407 37.6161C253.876 37.073 254.53 36.6575 255.369 36.3694C256.209 36.0814 257.081 35.9374 257.986 35.9374C259.081 35.9374 259.945 36.172 260.578 36.641C261.22 37.1018 261.636 37.6038 261.825 38.1469C261.94 38.4925 261.998 39.2866 261.998 40.5291V45.0098C261.998 45.5364 262.018 45.8697 262.06 46.0096C262.101 46.1412 262.162 46.24 262.245 46.3058C262.327 46.3717 262.422 46.4046 262.529 46.4046C262.743 46.4046 262.961 46.2523 263.183 45.9479L263.553 46.2441C263.142 46.853 262.714 47.2974 262.269 47.5772C261.833 47.8487 261.335 47.9845 260.776 47.9845C260.118 47.9845 259.603 47.8323 259.233 47.5278C258.863 47.2151 258.636 46.7461 258.554 46.1207ZM258.554 45.2196V41.3561C257.558 41.9404 256.818 42.5658 256.332 43.2323C256.011 43.6767 255.851 44.1252 255.851 44.5778C255.851 44.9563 255.987 45.2896 256.258 45.5776C256.464 45.7997 256.752 45.9108 257.122 45.9108C257.534 45.9108 258.011 45.6804 258.554 45.2196Z" fill="#1D1D1D"/>
<path d="M269.54 31.0865V37.7642C270.173 37.0977 270.753 36.6287 271.28 36.3571C271.807 36.0773 272.354 35.9374 272.922 35.9374C273.646 35.9374 274.263 36.1431 274.773 36.5546C275.292 36.966 275.633 37.4515 275.798 38.0111C275.97 38.5624 276.057 39.4964 276.057 40.813V45.3184C276.057 46.1988 276.139 46.7502 276.304 46.9724C276.468 47.1863 276.802 47.3221 277.304 47.3797V47.824H271.453V47.3797C271.864 47.3221 272.173 47.1575 272.379 46.886C272.527 46.672 272.601 46.1495 272.601 45.3184V40.1712C272.601 39.2166 272.564 38.62 272.49 38.3814C272.416 38.1345 272.288 37.9453 272.107 37.8136C271.934 37.6737 271.737 37.6038 271.515 37.6038C271.185 37.6038 270.864 37.719 270.552 37.9494C270.239 38.1716 269.902 38.5666 269.54 39.1343V45.3184C269.54 46.1412 269.601 46.6555 269.725 46.8613C269.881 47.1411 270.202 47.3139 270.688 47.3797V47.824H264.837V47.3797C265.322 47.3303 265.668 47.174 265.874 46.9106C266.014 46.7296 266.083 46.1988 266.083 45.3184V33.5922C266.083 32.7199 266.001 32.1768 265.837 31.9629C265.68 31.7489 265.347 31.609 264.837 31.5432V31.0865H269.54Z" fill="#1D1D1D"/>
<path d="M296.411 42.1214L300.953 31.0865H307.767V31.5432H307.224C306.73 31.5432 306.335 31.6296 306.039 31.8024C305.833 31.9176 305.669 32.111 305.545 32.3825C305.455 32.58 305.409 33.0943 305.409 33.9255V44.9604C305.409 45.8162 305.455 46.3511 305.545 46.565C305.636 46.779 305.821 46.9682 306.101 47.1328C306.38 47.2892 306.755 47.3673 307.224 47.3673H307.767V47.824H299.028V47.3673H299.571C300.065 47.3673 300.46 47.2809 300.756 47.1081C300.962 46.9929 301.126 46.7954 301.25 46.5157C301.34 46.3182 301.385 45.7997 301.385 44.9604V32.5554L294.967 47.824H294.671L288.153 32.6664V44.4543C288.153 45.2772 288.174 45.7833 288.215 45.9726C288.322 46.384 288.552 46.7214 288.906 46.9847C289.268 47.2398 289.832 47.3673 290.597 47.3673V47.824H284.87V47.3673H285.043C285.413 47.3756 285.759 47.318 286.08 47.1945C286.401 47.0629 286.643 46.8901 286.808 46.6761C286.973 46.4622 287.1 46.1618 287.191 45.7751C287.207 45.6845 287.215 45.2649 287.215 44.516V33.9255C287.215 33.0779 287.17 32.5512 287.079 32.3455C286.989 32.1316 286.804 31.9464 286.524 31.7901C286.244 31.6255 285.87 31.5432 285.401 31.5432H284.87V31.0865H291.708L296.411 42.1214Z" fill="#1D1D1D"/>
<path d="M315.457 46.1207C314.05 47.3632 312.787 47.9845 311.667 47.9845C311.009 47.9845 310.462 47.7706 310.026 47.3427C309.59 46.9065 309.372 46.3634 309.372 45.7133C309.372 44.8328 309.75 44.0429 310.507 43.3434C311.264 42.6357 312.914 41.6976 315.457 40.5291V39.3689C315.457 38.4966 315.407 37.9494 315.309 37.7272C315.218 37.4968 315.041 37.2993 314.778 37.1347C314.515 36.9619 314.218 36.8755 313.889 36.8755C313.354 36.8755 312.914 36.9948 312.568 37.2335C312.354 37.3816 312.248 37.5544 312.248 37.7519C312.248 37.9247 312.363 38.1387 312.593 38.3937C312.906 38.7476 313.062 39.0891 313.062 39.4182C313.062 39.8215 312.91 40.1671 312.605 40.4551C312.309 40.7349 311.918 40.8748 311.433 40.8748C310.914 40.8748 310.478 40.7184 310.124 40.4057C309.779 40.093 309.606 39.7268 309.606 39.3072C309.606 38.7147 309.841 38.151 310.31 37.6161C310.779 37.073 311.433 36.6575 312.272 36.3694C313.112 36.0814 313.984 35.9374 314.889 35.9374C315.983 35.9374 316.847 36.172 317.481 36.641C318.123 37.1018 318.538 37.6038 318.728 38.1469C318.843 38.4925 318.901 39.2866 318.901 40.5291V45.0098C318.901 45.5364 318.921 45.8697 318.962 46.0096C319.003 46.1412 319.065 46.24 319.147 46.3058C319.23 46.3717 319.324 46.4046 319.431 46.4046C319.645 46.4046 319.863 46.2523 320.086 45.9479L320.456 46.2441C320.044 46.853 319.616 47.2974 319.172 47.5772C318.736 47.8487 318.238 47.9845 317.679 47.9845C317.02 47.9845 316.506 47.8323 316.136 47.5278C315.765 47.2151 315.539 46.7461 315.457 46.1207ZM315.457 45.2196V41.3561C314.461 41.9404 313.72 42.5658 313.235 43.2323C312.914 43.6767 312.754 44.1252 312.754 44.5778C312.754 44.9563 312.889 45.2896 313.161 45.5776C313.367 45.7997 313.655 45.9108 314.025 45.9108C314.436 45.9108 314.914 45.6804 315.457 45.2196Z" fill="#1D1D1D"/>
<path d="M326.307 32.0616V36.283H329.047V37.505H326.307V44.6271C326.307 45.2937 326.335 45.7257 326.393 45.9232C326.459 46.1124 326.57 46.2688 326.726 46.3922C326.883 46.5074 327.027 46.565 327.158 46.565C327.693 46.565 328.199 46.1577 328.676 45.343L329.047 45.6146C328.38 47.1945 327.298 47.9845 325.8 47.9845C325.068 47.9845 324.447 47.7829 323.937 47.3797C323.435 46.9682 323.114 46.5115 322.974 46.0096C322.892 45.7298 322.85 44.9727 322.85 43.7384V37.505H321.345V37.073C322.381 36.3406 323.262 35.5712 323.986 34.7648C324.718 33.9584 325.356 33.0573 325.899 32.0616H326.307Z" fill="#1D1D1D"/>
<path d="M336.514 46.1207C335.107 47.3632 333.844 47.9845 332.725 47.9845C332.067 47.9845 331.52 47.7706 331.083 47.3427C330.647 46.9065 330.429 46.3634 330.429 45.7133C330.429 44.8328 330.808 44.0429 331.565 43.3434C332.322 42.6357 333.972 41.6976 336.514 40.5291V39.3689C336.514 38.4966 336.465 37.9494 336.366 37.7272C336.276 37.4968 336.099 37.2993 335.836 37.1347C335.572 36.9619 335.276 36.8755 334.947 36.8755C334.412 36.8755 333.972 36.9948 333.626 37.2335C333.412 37.3816 333.305 37.5544 333.305 37.7519C333.305 37.9247 333.42 38.1387 333.651 38.3937C333.964 38.7476 334.12 39.0891 334.12 39.4182C334.12 39.8215 333.968 40.1671 333.663 40.4551C333.367 40.7349 332.976 40.8748 332.491 40.8748C331.972 40.8748 331.536 40.7184 331.182 40.4057C330.837 40.093 330.664 39.7268 330.664 39.3072C330.664 38.7147 330.898 38.151 331.367 37.6161C331.836 37.073 332.491 36.6575 333.33 36.3694C334.169 36.0814 335.042 35.9374 335.947 35.9374C337.041 35.9374 337.905 36.172 338.539 36.641C339.181 37.1018 339.596 37.6038 339.785 38.1469C339.901 38.4925 339.958 39.2866 339.958 40.5291V45.0098C339.958 45.5364 339.979 45.8697 340.02 46.0096C340.061 46.1412 340.123 46.24 340.205 46.3058C340.287 46.3717 340.382 46.4046 340.489 46.4046C340.703 46.4046 340.921 46.2523 341.143 45.9479L341.514 46.2441C341.102 46.853 340.674 47.2974 340.23 47.5772C339.794 47.8487 339.296 47.9845 338.736 47.9845C338.078 47.9845 337.564 47.8323 337.193 47.5278C336.823 47.2151 336.597 46.7461 336.514 46.1207ZM336.514 45.2196V41.3561C335.519 41.9404 334.778 42.5658 334.293 43.2323C333.972 43.6767 333.811 44.1252 333.811 44.5778C333.811 44.9563 333.947 45.2896 334.219 45.5776C334.424 45.7997 334.712 45.9108 335.083 45.9108C335.494 45.9108 335.971 45.6804 336.514 45.2196Z" fill="#1D1D1D"/>
<path d="M355.165 39.7762V44.9604C355.165 45.8162 355.211 46.3511 355.301 46.565C355.4 46.779 355.585 46.9682 355.856 47.1328C356.136 47.2892 356.511 47.3673 356.98 47.3673H357.535V47.824H348.784V47.3673H349.339C349.825 47.3673 350.216 47.2809 350.512 47.1081C350.726 46.9929 350.89 46.7954 351.006 46.5157C351.096 46.3182 351.141 45.7997 351.141 44.9604V33.9502C351.141 33.0943 351.096 32.5595 351.006 32.3455C350.915 32.1316 350.73 31.9464 350.45 31.7901C350.179 31.6255 349.808 31.5432 349.339 31.5432H348.784V31.0865H357.535V31.5432H356.98C356.494 31.5432 356.103 31.6296 355.807 31.8024C355.593 31.9176 355.424 32.1151 355.301 32.3949C355.211 32.5924 355.165 33.1108 355.165 33.9502V38.69H361.078V33.9502C361.078 33.0943 361.032 32.5595 360.942 32.3455C360.851 32.1316 360.666 31.9464 360.386 31.7901C360.107 31.6255 359.732 31.5432 359.263 31.5432H358.72V31.0865H367.459V31.5432H366.916C366.422 31.5432 366.031 31.6296 365.743 31.8024C365.53 31.9176 365.361 32.1151 365.237 32.3949C365.147 32.5924 365.102 33.1108 365.102 33.9502V44.9604C365.102 45.8162 365.147 46.3511 365.237 46.565C365.328 46.779 365.513 46.9682 365.793 47.1328C366.073 47.2892 366.447 47.3673 366.916 47.3673H367.459V47.824H358.72V47.3673H359.263C359.757 47.3673 360.148 47.2809 360.436 47.1081C360.65 46.9929 360.818 46.7954 360.942 46.5157C361.032 46.3182 361.078 45.7997 361.078 44.9604V39.7762H355.165Z" fill="#1D1D1D"/>
<path d="M375.149 46.1207C373.742 47.3632 372.479 47.9845 371.36 47.9845C370.701 47.9845 370.154 47.7706 369.718 47.3427C369.282 46.9065 369.064 46.3634 369.064 45.7133C369.064 44.8328 369.442 44.0429 370.199 43.3434C370.956 42.6357 372.606 41.6976 375.149 40.5291V39.3689C375.149 38.4966 375.1 37.9494 375.001 37.7272C374.91 37.4968 374.734 37.2993 374.47 37.1347C374.207 36.9619 373.911 36.8755 373.581 36.8755C373.047 36.8755 372.606 36.9948 372.261 37.2335C372.047 37.3816 371.94 37.5544 371.94 37.7519C371.94 37.9247 372.055 38.1387 372.285 38.3937C372.598 38.7476 372.754 39.0891 372.754 39.4182C372.754 39.8215 372.602 40.1671 372.298 40.4551C372.002 40.7349 371.611 40.8748 371.125 40.8748C370.607 40.8748 370.171 40.7184 369.817 40.4057C369.471 40.093 369.298 39.7268 369.298 39.3072C369.298 38.7147 369.533 38.151 370.002 37.6161C370.471 37.073 371.125 36.6575 371.965 36.3694C372.804 36.0814 373.676 35.9374 374.581 35.9374C375.676 35.9374 376.54 36.172 377.173 36.641C377.815 37.1018 378.231 37.6038 378.42 38.1469C378.535 38.4925 378.593 39.2866 378.593 40.5291V45.0098C378.593 45.5364 378.613 45.8697 378.655 46.0096C378.696 46.1412 378.757 46.24 378.84 46.3058C378.922 46.3717 379.017 46.4046 379.124 46.4046C379.338 46.4046 379.556 46.2523 379.778 45.9479L380.148 46.2441C379.737 46.853 379.309 47.2974 378.864 47.5772C378.428 47.8487 377.93 47.9845 377.371 47.9845C376.713 47.9845 376.198 47.8323 375.828 47.5278C375.458 47.2151 375.231 46.7461 375.149 46.1207ZM375.149 45.2196V41.3561C374.153 41.9404 373.413 42.5658 372.927 43.2323C372.606 43.6767 372.446 44.1252 372.446 44.5778C372.446 44.9563 372.582 45.2896 372.853 45.5776C373.059 45.7997 373.347 45.9108 373.717 45.9108C374.129 45.9108 374.606 45.6804 375.149 45.2196Z" fill="#1D1D1D"/>
<path d="M385.999 32.0616V36.283H388.739V37.505H385.999V44.6271C385.999 45.2937 386.028 45.7257 386.085 45.9232C386.151 46.1124 386.262 46.2688 386.419 46.3922C386.575 46.5074 386.719 46.565 386.851 46.565C387.385 46.565 387.892 46.1577 388.369 45.343L388.739 45.6146C388.073 47.1945 386.99 47.9845 385.493 47.9845C384.76 47.9845 384.139 47.7829 383.629 47.3797C383.127 46.9682 382.806 46.5115 382.666 46.0096C382.584 45.7298 382.543 44.9727 382.543 43.7384V37.505H381.037V37.073C382.074 36.3406 382.954 35.5712 383.678 34.7648C384.411 33.9584 385.048 33.0573 385.592 32.0616H385.999Z" fill="#1D1D1D"/>
<path d="M392.615 30.6915C393.15 30.6915 393.602 30.8808 393.973 31.2593C394.343 31.6296 394.528 32.0781 394.528 32.6047C394.528 33.1314 394.339 33.5799 393.96 33.9502C393.59 34.3205 393.142 34.5056 392.615 34.5056C392.088 34.5056 391.64 34.3205 391.269 33.9502C390.899 33.5799 390.714 33.1314 390.714 32.6047C390.714 32.0781 390.899 31.6296 391.269 31.2593C391.64 30.8808 392.088 30.6915 392.615 30.6915ZM394.343 36.283V45.4294C394.343 46.2441 394.438 46.7666 394.627 46.997C394.816 47.2192 395.186 47.3468 395.738 47.3797V47.824H389.504V47.3797C390.015 47.3632 390.393 47.2151 390.64 46.9353C390.805 46.7461 390.887 46.2441 390.887 45.4294V38.69C390.887 37.8753 390.792 37.3569 390.603 37.1347C390.414 36.9043 390.047 36.7727 389.504 36.7397V36.283H394.343Z" fill="#1D1D1D"/>
</svg>
